<?xml version="1.0" encoding="UTF-8" standalone="no"?>
<!-- Created with Inkscape (http://www.inkscape.org/) -->

<svg
   width="82.827538mm"
   height="30.313974mm"
   viewBox="0 0 82.827536 30.313974"
   version="1.1"
   id="svg1"
   xml:space="preserve"
   inkscape:version="1.3.2 (091e20e, 2023-11-25, custom)"
   sodipodi:docname="Logo_v1.svg"
   xmlns:inkscape="http://www.inkscape.org/namespaces/inkscape"
   xmlns:sodipodi="http://sodipodi.sourceforge.net/DTD/sodipodi-0.dtd"
   xmlns="http://www.w3.org/2000/svg"
   xmlns:svg="http://www.w3.org/2000/svg"><sodipodi:namedview
     id="namedview1"
     pagecolor="#ffffff"
     bordercolor="#000000"
     borderopacity="0.25"
     inkscape:showpageshadow="2"
     inkscape:pageopacity="0.0"
     inkscape:pagecheckerboard="0"
     inkscape:deskcolor="#d1d1d1"
     inkscape:document-units="mm"
     inkscape:zoom="4"
     inkscape:cx="133.375"
     inkscape:cy="45.125"
     inkscape:window-width="2400"
     inkscape:window-height="1261"
     inkscape:window-x="-9"
     inkscape:window-y="-9"
     inkscape:window-maximized="1"
     inkscape:current-layer="layer2" /><defs
     id="defs1"><inkscape:path-effect
       effect="bspline"
       id="path-effect10"
       is_visible="true"
       lpeversion="1.3"
       weight="33.333333"
       steps="2"
       helper_size="0"
       apply_no_weight="true"
       apply_with_weight="true"
       only_selected="false"
       uniform="false" /><inkscape:path-effect
       effect="bspline"
       id="path-effect9"
       is_visible="true"
       lpeversion="1.3"
       weight="33.333333"
       steps="2"
       helper_size="0"
       apply_no_weight="true"
       apply_with_weight="true"
       only_selected="false"
       uniform="false" /><inkscape:path-effect
       effect="bspline"
       id="path-effect8"
       is_visible="true"
       lpeversion="1.3"
       weight="33.333333"
       steps="2"
       helper_size="0"
       apply_no_weight="true"
       apply_with_weight="true"
       only_selected="false"
       uniform="false" /><inkscape:path-effect
       effect="bspline"
       id="path-effect7"
       is_visible="true"
       lpeversion="1.3"
       weight="33.333333"
       steps="2"
       helper_size="0"
       apply_no_weight="true"
       apply_with_weight="true"
       only_selected="false"
       uniform="false" /><inkscape:path-effect
       effect="bspline"
       id="path-effect6"
       is_visible="true"
       lpeversion="1.3"
       weight="33.333333"
       steps="2"
       helper_size="0"
       apply_no_weight="true"
       apply_with_weight="true"
       only_selected="false"
       uniform="false" /><inkscape:path-effect
       effect="bspline"
       id="path-effect8-9"
       is_visible="true"
       lpeversion="1.3"
       weight="33.333333"
       steps="2"
       helper_size="0"
       apply_no_weight="true"
       apply_with_weight="true"
       only_selected="false"
       uniform="false" /><inkscape:path-effect
       effect="bspline"
       id="path-effect7-1"
       is_visible="true"
       lpeversion="1.3"
       weight="33.333333"
       steps="2"
       helper_size="0"
       apply_no_weight="true"
       apply_with_weight="true"
       only_selected="false"
       uniform="false" /><inkscape:path-effect
       effect="bspline"
       id="path-effect7-1-4"
       is_visible="true"
       lpeversion="1.3"
       weight="33.333333"
       steps="2"
       helper_size="0"
       apply_no_weight="true"
       apply_with_weight="true"
       only_selected="false"
       uniform="false" /></defs><g
     inkscape:groupmode="layer"
     id="layer2"
     inkscape:label="Layer 2"
     transform="translate(-2.6437666,-3.1018828)"><path
       style="fill:#008000;stroke-width:0.266042;fill-opacity:1"
       d="m 33.361271,18.917364 c -0.150853,-2.95e-4 -0.307559,0.01111 -0.441833,0.03343 -0.268549,0.04465 -0.447789,0.134653 -0.537952,0.180257 -0.09016,0.0456 -0.09111,0.04624 -1.706873,2.06484 -1.615763,2.018601 -4.84649,6.055203 -6.459037,8.074927 -1.612594,2.019726 -1.60668,2.022914 -1.617989,2.373105 -0.01131,0.350191 -0.03956,1.047326 0.142627,1.398679 0.182183,0.351354 0.574347,0.356853 0.994771,0.356853 0.420425,0 0.869026,-0.0055 1.096057,-0.0084 0.227031,-0.0027 0.232812,-0.003 1.611788,-1.715824 1.378975,-1.712814 4.13146,-5.138346 6.883818,-8.563969 2.791597,3.346022 5.583154,6.691961 7.067269,8.40618 1.484115,1.714217 1.660575,1.796573 1.750281,1.839128 0.08971,0.04255 0.09243,0.04564 0.447001,0.04702 0.35457,0.0014 1.060639,0.0013 1.418001,-0.129053 0.357361,-0.130382 0.36588,-0.391329 0.375688,-0.781107 0.0098,-0.389778 0.02112,-0.908387 0.02222,-1.172445 0.0011,-0.264057 -0.0079,-0.273725 -1.716175,-2.255546 -1.70832,-1.981821 -5.115936,-5.935806 -6.819739,-7.912959 -1.703803,-1.977149 -1.703723,-1.977429 -1.747696,-2.021998 -0.04397,-0.04457 -0.132184,-0.133642 -0.355018,-0.178688 -0.111416,-0.02254 -0.256356,-0.03419 -0.40721,-0.03449 z"
       id="path13" /><path
       style="fill:#008000;stroke-width:0.266042;fill-opacity:1"
       d="m 7.7618001,17.354105 c -0.1766833,-0.0011 -0.5298533,-0.0034 -0.7064168,0.130096 -0.1765635,0.133574 -0.17634,0.402894 -0.1762166,0.805142 1.2e-4,0.402248 2.97e-5,0.937455 -0.00155,1.383005 -0.00158,0.44555 -0.005,0.80148 0.1715657,0.979649 0.1765618,0.17817 0.5332652,0.178206 2.254126,0.178167 1.7208606,0 4.8062236,-1.52e-4 6.5241496,0.0016 1.717926,0.0017 2.068204,0.0054 2.244307,-0.128531 0.176087,-0.133942 0.177617,-0.405427 0.179317,-0.808277 0.0016,-0.402848 0.0031,-0.936891 0.0031,-1.381959 0,-0.445067 -0.0011,-0.800974 -0.17725,-0.979128 -0.176138,-0.178153 -0.52705,-0.178612 -2.245858,-0.178688 -1.718809,-7.5e-5 -4.805565,0 -6.3489661,0 -1.5434013,0 -1.543625,6.8e-5 -1.7203085,-0.001 z"
       id="path12" /><path
       style="fill:#008000;stroke-width:0.266042;fill-opacity:1"
       d="m 42.414465,3.1766078 c -0.348657,0.0014 -0.351038,0.00382 -0.439249,0.047024 -0.08821,0.043202 -0.261974,0.1271044 -1.721342,1.8673434 C 38.794505,6.8312157 36.049476,10.227829 33.304427,13.624642 30.597963,10.147018 27.891313,6.6693872 26.535331,4.9305755 25.179349,3.1917636 25.174177,3.1919363 24.950932,3.1891497 c -0.223246,-0.00279 -0.664556,-0.00836 -1.077971,-0.00836 -0.413414,0 -0.79909,0.00539 -0.978234,0.3620787 -0.179145,0.3566863 -0.151685,1.0645942 -0.14056,1.4201005 0.01112,0.3555062 0.0059,0.3587717 1.591634,2.4091551 1.585659,2.0503836 4.762211,6.147423 6.351033,8.196665 1.588823,2.049241 1.58979,2.05042 1.678451,2.096712 0.08866,0.0463 0.264579,0.138066 0.52865,0.18339 0.26407,0.04533 0.615973,0.0442 0.835091,-0.0015 0.219118,-0.04573 0.305578,-0.136053 0.348816,-0.181301 0.04324,-0.04525 0.04336,-0.04566 1.718758,-2.052824 1.675393,-2.007163 5.026215,-6.0212246 6.706051,-8.0331284 1.679836,-2.0119037 1.68883,-2.0214421 1.687752,-2.2895071 -0.0011,-0.2680651 -0.01206,-0.794515 -0.0217,-1.1902094 C 44.169055,3.7046603 44.160615,3.4395915 43.809212,3.3072302 43.457809,3.1748689 42.763123,3.1752073 42.414465,3.1766093 Z"
       id="path11" /><path
       style="fill:#008000;stroke-width:0.266921;fill-opacity:1"
       d="M 3.714502,3.1719129 C 3.4943356,3.1692957 3.0716441,3.1634271 2.8597738,3.3417913 2.6479001,3.5201571 2.64668,3.8829076 2.6458333,4.0639062 c -8.5e-4,0.1809985 -0.0012,0.1802694 -0.00155,4.8491618 -3.499e-4,4.668892 -5.167e-4,14.007394 -5.167e-4,18.676635 0,4.669267 2.309e-4,4.66885 0.00465,4.67455 0.00442,0.0056 0.013083,0.01742 0.015503,0.196701 0.00242,0.179286 -0.00163,0.526193 0.1705322,0.701078 0.1721661,0.174884 0.5205479,0.177582 0.9151896,0.177241 0.3946417,-4.05e-4 0.8352795,-0.0036 1.2309326,-0.0063 0.3956532,-0.0026 0.7462043,-0.0047 0.9213908,-0.182501 0.1751866,-0.177767 0.1751831,-0.531196 0.1751831,-0.707915 0,-0.176719 0.00696,-17.236793 0.010335,-25.7668247 4.6740251,-6.955e-4 9.3480501,-0.00157 11.7284831,-0.00157 2.380433,0 2.46685,9.743e-4 2.68459,0.00368 0.217742,0.00271 0.566688,0.00757 0.742074,-0.1714562 0.175385,-0.1790221 0.177217,-0.5419519 0.179317,-0.9482688 0.0021,-0.4063169 0.0046,-0.856309 0,-1.259625 -0.0046,-0.4032907 -0.01594,-0.7600179 -0.191203,-0.9398286 -0.175262,-0.1798124 -0.514823,-0.1828355 -0.729154,-0.1835529 -0.214331,-7.21e-4 -0.303546,0.00105 -3.038057,0.00105 -2.734512,0 -8.1141084,-0.00175 -10.8127773,-0.0021 -2.6986688,-3.46e-4 -2.7160885,5.118e-4 -2.9362548,-0.0021 z"
       id="path6" /><path
       style="fill:#000000;stroke-width:0.240021"
       d="m 59.991171,3.1713921 c -0.335205,-0.00981 -0.644202,0.1117055 -0.888319,0.2199623 -0.244116,0.1082578 -0.423256,0.2030058 -2.689758,4.8156764 -2.266501,4.6126712 -6.620325,13.7432952 -8.828401,18.3363522 -2.208073,4.593059 -2.270489,4.64807 -2.301669,4.675652 -0.03118,0.02758 -0.03115,0.02782 -0.05064,0.374616 -0.01949,0.346789 -0.05808,1.040055 0.160196,1.398673 0.21827,0.358617 0.693295,0.382651 1.141533,0.39447 0.448238,0.01182 0.869445,0.01153 1.146183,-0.0397 0.276739,-0.05123 0.409289,-0.153582 2.429309,-4.296333 2.020019,-4.14275 5.927377,-12.325516 7.947319,-16.29451 2.019943,-3.9689925 2.15224,-3.7236931 4.228683,0.436792 2.076442,4.160485 6.096945,12.236158 8.171593,16.299734 2.074649,4.063572 2.086608,3.878174 2.376975,3.905756 0.290366,0.02758 0.835721,0.0077 1.229392,0.01554 0.393671,0.0079 0.775638,-0.0035 0.941291,-0.180911 0.165656,-0.177335 0.161744,-0.780719 0.161747,-0.967916 0,-0.187196 -0.04249,-0.620284 -0.04212,-0.844107 3.67e-4,-0.223822 0.02013,0.282094 -2.289651,-4.531347 C 70.525041,22.076351 65.909088,12.889121 63.600247,8.294291 61.291407,3.6994605 61.13091,3.5435982 60.909456,3.4331595 60.688,3.3227199 60.326368,3.1812458 59.991166,3.1713982 Z"
       id="path10"
       sodipodi:nodetypes="sssssssssssssssssssssss" /><path
       style="fill:#000000;stroke-width:0.23838"
       d="m 76.930705,3.1021353 c -0.143812,-0.00119 -0.431444,-0.00339 -0.575159,0.1283246 -0.143715,0.1317513 -0.143244,0.3979166 -0.143144,0.7946802 9.8e-5,0.3967647 -2.64e-4,0.9241597 -0.0015,1.3636358 -0.0013,0.439476 -0.0037,0.7905544 0.140043,0.9662946 0.143713,0.1757392 0.433812,0.1762906 1.834513,0.1762517 0.244128,0 0.625695,5.216e-4 0.925526,5.156e-4 l 0.01551,23.4224692 H 78.28256 c -1.256257,0 -1.256102,6.6e-5 -1.399914,-9.97e-4 -0.143812,-0.0012 -0.431444,-0.0034 -0.575159,0.128324 -0.143715,0.131751 -0.143761,0.397401 -0.14366,0.794165 9.7e-5,0.396765 2.52e-4,0.924675 -0.001,1.36415 -0.0013,0.439477 -0.0037,0.790556 0.140043,0.966295 0.143713,0.175741 0.433295,0.176292 1.833997,0.176253 1.400701,0 3.912474,-6.65e-4 5.310786,9.97e-4 1.398314,0.0017 1.683423,0.0059 1.826763,-0.126262 0.143326,-0.132116 0.14486,-0.400416 0.146244,-0.797773 0.0013,-0.397358 0.0026,-0.924118 0.0026,-1.36312 0,-0.439 -0.0013,-0.790053 -0.144694,-0.965779 -0.143368,-0.175725 -0.428765,-0.176177 -1.827795,-0.176252 -0.17696,-10e-6 -0.445914,7e-6 -0.653707,0 L 82.732951,6.5328691 c 0.240185,1.685e-4 0.561897,-2.434e-4 0.762744,0 1.398314,0.0017 1.683423,0.00538 1.826763,-0.126778 0.143327,-0.1321162 0.14486,-0.4004147 0.146244,-0.7977727 0.0013,-0.397357 0.0026,-0.9236032 0.0026,-1.3626045 0,-0.4389993 -0.0013,-0.7905694 -0.144695,-0.9662947 -0.143368,-0.1757252 -0.428765,-0.1756613 -1.827795,-0.1757361 -1.399032,-7.48e-5 -3.911386,0 -5.167644,0 v -5.156e-4 c -1.256257,0 -1.256619,6.58e-5 -1.400431,-9.973e-4 z"
       id="path7-9" /></g></svg>
